<svg width="18" height="18" viewBox="0 0 18 18" fill="none" xmlns="http://www.w3.org/2000/svg">
<path d="M17.15 2.01667C17.2467 1.89471 17.3073 1.7481 17.325 1.59346C17.3427 1.43881 17.3167 1.2823 17.25 1.14167C17.1824 0.999856 17.0762 0.880022 16.9435 0.79598C16.8108 0.711938 16.657 0.667111 16.5 0.666666H1.49998C1.34291 0.667111 1.18916 0.711938 1.05646 0.79598C0.923762 0.880022 0.817518 0.999856 0.749978 1.14167C0.683264 1.2823 0.657271 1.43881 0.674946 1.59346C0.69262 1.7481 0.753254 1.89471 0.849978 2.01667L8.16664 11.1667V15.6667H3.37498C3.15396 15.6667 2.942 15.7545 2.78572 15.9107C2.62944 16.067 2.54164 16.279 2.54164 16.5C2.54164 16.721 2.62944 16.933 2.78572 17.0893C2.942 17.2455 3.15396 17.3333 3.37498 17.3333H14.625C14.846 17.3333 15.058 17.2455 15.2142 17.0893C15.3705 16.933 15.4583 16.721 15.4583 16.5C15.4583 16.279 15.3705 16.067 15.2142 15.9107C15.058 15.7545 14.846 15.6667 14.625 15.6667H9.83331V11.1667L17.15 2.01667ZM3.23331 2.33333H14.7666L12.7666 4.83333H5.26664L3.23331 2.33333ZM8.99998 9.54167L6.56664 6.5H11.4333L8.99998 9.54167Z" fill="#495057"/>
</svg>
