<svg width="14" height="14" viewBox="0 0 14 14" fill="none" xmlns="http://www.w3.org/2000/svg">
<path d="M13.452 4.32003L12.5087 5.26203L11.0954 3.8487L9.68069 5.26203L12.0374 7.61937L11.0947 8.56203L10.6234 8.0907L6.38069 12.3334H2.60935L1.19535 13.7474L0.252686 12.8047L1.66669 11.3907V7.61937L5.90935 3.3767L5.43802 2.90537L6.38069 1.9627L8.73802 4.31937L10.1514 2.90537L8.73802 1.49137L9.68069 0.548035L13.452 4.31937V4.32003ZM9.68069 7.14803L6.85202 4.31937L5.90935 5.26203L7.32335 6.6767L6.38069 7.61937L4.96669 6.20537L4.02402 7.14803L5.43735 8.56203L4.49535 9.5047L3.08069 8.0907L3.00002 8.17137V11H5.82869L9.68069 7.14803Z" fill="#37C757"/>
</svg>
