<svg width="18" height="18" viewBox="0 0 18 18" fill="none" xmlns="http://www.w3.org/2000/svg">
<path d="M13.0333 8.69166C13.3671 8.69579 13.6984 8.63303 14.0075 8.50708C14.3167 8.38114 14.5974 8.19455 14.8333 7.95833L17.1917 5.6C17.3469 5.44386 17.434 5.23265 17.434 5.0125C17.434 4.79234 17.3469 4.58113 17.1917 4.425C17.1142 4.34689 17.022 4.28489 16.9205 4.24259C16.8189 4.20028 16.71 4.1785 16.6 4.1785C16.49 4.1785 16.3811 4.20028 16.2795 4.24259C16.178 4.28489 16.0858 4.34689 16.0083 4.425L13.625 6.775C13.5475 6.8531 13.4554 6.9151 13.3538 6.95741C13.2523 6.99971 13.1433 7.02149 13.0333 7.02149C12.9233 7.02149 12.8144 6.99971 12.7128 6.95741C12.6113 6.9151 12.5191 6.8531 12.4417 6.775L15.3917 3.83333C15.4694 3.75563 15.531 3.66339 15.573 3.56187C15.6151 3.46035 15.6367 3.35154 15.6367 3.24166C15.6367 3.13178 15.6151 3.02297 15.573 2.92145C15.531 2.81994 15.4694 2.72769 15.3917 2.65C15.314 2.5723 15.2217 2.51066 15.1202 2.46861C15.0187 2.42656 14.9099 2.40492 14.8 2.40492C14.6901 2.40492 14.5813 2.42656 14.4798 2.46861C14.3783 2.51066 14.286 2.5723 14.2083 2.65L11.2667 5.6C11.1114 5.44386 11.0243 5.23265 11.0243 5.0125C11.0243 4.79234 11.1114 4.58113 11.2667 4.425L13.625 2.06666C13.7027 1.98896 13.7643 1.89672 13.8064 1.7952C13.8484 1.69368 13.8701 1.58488 13.8701 1.475C13.8701 1.36511 13.8484 1.25631 13.8064 1.15479C13.7643 1.05327 13.7027 0.961027 13.625 0.883329C13.5473 0.80563 13.455 0.743996 13.3535 0.701946C13.252 0.659895 13.1432 0.638252 13.0333 0.638252C12.9234 0.638252 12.8146 0.659895 12.7131 0.701946C12.6116 0.743996 12.5194 0.80563 12.4417 0.883329L10.0833 3.24166C9.61516 3.71041 9.35219 4.34583 9.35219 5.00833C9.35219 5.67083 9.61516 6.30624 10.0833 6.775L8.99999 7.85L2.10832 0.933329L2.02499 0.883329C1.98239 0.846162 1.93468 0.815293 1.88332 0.791662L1.73332 0.733329L1.63332 0.666662H1.57499H1.40832C1.35864 0.658717 1.30801 0.658717 1.25832 0.666662C1.20787 0.685024 1.1602 0.710262 1.11666 0.741662L0.983323 0.824995H0.92499L0.87499 0.908329C0.83972 0.952328 0.809007 0.999793 0.783323 1.05C0.758917 1.10081 0.739385 1.15383 0.724989 1.20833C0.724989 1.20833 0.724989 1.26666 0.724989 1.3C0.522769 2.7095 0.651698 4.14674 1.10155 5.49776C1.55141 6.84877 2.30982 8.07641 3.31666 9.08333L5.51666 11.275L1.00832 15.775C0.930216 15.8525 0.868221 15.9446 0.825913 16.0462C0.783606 16.1477 0.761824 16.2567 0.761824 16.3667C0.761824 16.4767 0.783606 16.5856 0.825913 16.6871C0.868221 16.7887 0.930216 16.8809 1.00832 16.9583C1.08619 17.0356 1.17854 17.0967 1.28007 17.1381C1.3816 17.1796 1.49032 17.2006 1.59999 17.2C1.70966 17.2006 1.81838 17.1796 1.91991 17.1381C2.02144 17.0967 2.11379 17.0356 2.19166 16.9583L7.24999 11.975L9.60832 9.61666L11.275 7.95C11.74 8.41999 12.3722 8.68667 13.0333 8.69166ZM6.65832 10.2083L4.46666 8.00833C3.26537 6.79061 2.5132 5.20105 2.33332 3.5L7.84166 9L6.65832 10.2083ZM11.8583 10.6833C11.7014 10.5253 11.4881 10.4361 11.2654 10.4353C11.0427 10.4345 10.8288 10.5222 10.6708 10.6792C10.5128 10.8361 10.4236 11.0493 10.4228 11.272C10.422 11.4947 10.5097 11.7086 10.6667 11.8667L15.9167 17.1167C16.0758 17.2615 16.2849 17.3391 16.5 17.3333C16.6097 17.334 16.7184 17.3129 16.8199 17.2715C16.9214 17.23 17.0138 17.1689 17.0917 17.0917C17.1698 17.0142 17.2318 16.922 17.2741 16.8205C17.3164 16.7189 17.3382 16.61 17.3382 16.5C17.3382 16.39 17.3164 16.2811 17.2741 16.1795C17.2318 16.078 17.1698 15.9858 17.0917 15.9083L11.8583 10.6833Z" fill="#495057"/>
</svg>
