<svg width="20" height="16" viewBox="0 0 20 16" fill="none" xmlns="http://www.w3.org/2000/svg">
<path d="M10.4042 0.600909L16.8692 2.21758C17.24 2.30924 17.5 2.64258 17.5 3.02591V3.83341H18.3333C19.25 3.83341 20 4.58341 20 5.50008V8.00008C20 8.66312 19.7366 9.299 19.2678 9.76784C18.7989 10.2367 18.163 10.5001 17.5 10.5001H17.1492C16.696 11.6444 15.8367 12.5814 14.7358 13.1317L10.745 15.1276C10.5136 15.243 10.2586 15.3032 10 15.3032C9.74142 15.3032 9.48637 15.243 9.255 15.1276L5.26333 13.1317C4.16327 12.5808 3.30472 11.6439 2.85167 10.5001H2.5C1.83696 10.5001 1.20107 10.2367 0.732233 9.76784C0.263392 9.299 0 8.66312 0 8.00008L0 5.50008C0 5.05805 0.175595 4.63413 0.488155 4.32156C0.800716 4.009 1.22464 3.83341 1.66667 3.83341H2.5V3.02508C2.5 2.64341 2.76 2.31008 3.13083 2.21674L9.59583 0.600909C9.86083 0.534242 10.1392 0.534242 10.4042 0.600909ZM10 2.21758L4.16667 3.67591V8.65924C4.16667 9.92258 4.88 11.0759 6.00917 11.6417L10 13.6367L13.9908 11.6417C14.5445 11.3648 15.0101 10.9392 15.3355 10.4126C15.6609 9.88594 15.8333 9.27912 15.8333 8.66008V3.67674L10 2.21841V2.21758ZM2.5 5.50008H1.66667V8.00008C1.66667 8.22109 1.75446 8.43305 1.91074 8.58933C2.06702 8.74561 2.27899 8.83341 2.5 8.83341V5.50008ZM18.3333 5.50008H17.5V8.83341C17.721 8.83341 17.933 8.74561 18.0893 8.58933C18.2455 8.43305 18.3333 8.22109 18.3333 8.00008V5.50008Z" fill="#495057"/>
</svg>
