<svg width="14" height="14" viewBox="0 0 14 14" fill="none" xmlns="http://www.w3.org/2000/svg">
<path d="M13 5.5V6.5H11.975C11.8765 5.52331 11.4911 4.59762 10.8675 3.8395L11.586 3.121L12.293 3.8285L13 3.1215L10.879 1L10.172 1.707L10.879 2.414L10.1605 3.1325C9.40241 2.50884 8.4767 2.12349 7.5 2.025V1H8.5V0H5.5V1H6.5V2.025C5.52347 2.12358 4.59795 2.50893 3.84 3.1325L3.1205 2.414L3.8275 1.707L3.121 1L1 3.1215L1.707 3.8285L2.414 3.121L3.1325 3.84C2.50916 4.59804 2.124 5.52354 2.0255 6.5H1V5.5H0V8.5H1V7.5H2.025C2.12355 8.47669 2.50889 9.40238 3.1325 10.1605L2.414 10.879L1.707 10.1715L1 10.8785L3.121 13L3.828 12.293L3.121 11.586L3.8395 10.8675C4.59759 11.4912 5.5233 11.8765 6.5 11.975V13H5.5V14H8.5V13H7.5V11.975C8.47653 11.8764 9.40205 11.4911 10.16 10.8675L10.879 11.586L10.172 12.293L10.879 13L13 10.8785L12.293 10.1715L11.586 10.879L10.8675 10.1605C11.4909 9.40232 11.8761 8.47663 11.9745 7.5H13V8.5H14V5.5H13ZM7 11C6.20887 11 5.43552 10.7654 4.77772 10.3259C4.11992 9.88635 3.60723 9.26164 3.30448 8.53073C3.00173 7.79983 2.92252 6.99556 3.07686 6.21964C3.2312 5.44371 3.61216 4.73098 4.17157 4.17157C4.73098 3.61216 5.44371 3.2312 6.21964 3.07686C6.99556 2.92252 7.79983 3.00173 8.53073 3.30448C9.26164 3.60723 9.88635 4.11992 10.3259 4.77772C10.7654 5.43552 11 6.20887 11 7C10.9987 8.06046 10.5768 9.07711 9.82697 9.82697C9.07711 10.5768 8.06046 10.9987 7 11Z" fill="#EA1416"/>
</svg>
